<svg xmlns="http://www.w3.org/2000/svg" width="1920" height="2000">
  <circle cx="287" cy="1362" r="1" fill="white" />
  <circle cx="1766" cy="28" r="1" fill="white" />
  <circle cx="674" cy="1218" r="1" fill="white" />
  <circle cx="1723" cy="1529" r="1" fill="white" />
  <circle cx="1551" cy="1777" r="1" fill="white" />
  <circle cx="594" cy="327" r="1" fill="white" />
  <circle cx="283" cy="1776" r="1" fill="white" />
  <circle cx="1375" cy="759" r="1" fill="white" />
  <circle cx="72" cy="1839" r="1" fill="white" />
  <circle cx="701" cy="1164" r="1" fill="white" />
  <circle cx="246" cy="1771" r="1" fill="white" />
  <circle cx="877" cy="1097" r="1" fill="white" />
  <circle cx="759" cy="1203" r="1" fill="white" />
  <circle cx="106" cy="340" r="1" fill="white" />
  <circle cx="417" cy="509" r="1" fill="white" />
  <circle cx="186" cy="1747" r="1" fill="white" />
  <circle cx="791" cy="1761" r="1" fill="white" />
  <circle cx="1482" cy="1684" r="1" fill="white" />
  <circle cx="101" cy="1313" r="1" fill="white" />
  <circle cx="247" cy="1645" r="1" fill="white" />
  <circle cx="136" cy="381" r="1" fill="white" />
  <circle cx="898" cy="427" r="1" fill="white" />
  <circle cx="881" cy="1422" r="1" fill="white" />
  <circle cx="586" cy="887" r="1" fill="white" />
  <circle cx="1911" cy="1593" r="1" fill="white" />
  <circle cx="1632" cy="840" r="1" fill="white" />
  <circle cx="304" cy="1834" r="1" fill="white" />
  <circle cx="686" cy="996" r="1" fill="white" />
  <circle cx="245" cy="1882" r="1" fill="white" />
  <circle cx="414" cy="1479" r="1" fill="white" />
  <circle cx="1328" cy="1082" r="1" fill="white" />
  <circle cx="71" cy="1677" r="1" fill="white" />
  <circle cx="357" cy="1074" r="1" fill="white" />
  <circle cx="1911" cy="1428" r="1" fill="white" />
  <circle cx="660" cy="1640" r="1" fill="white" />
  <circle cx="1000" cy="1633" r="1" fill="white" />
  <circle cx="534" cy="1988" r="1" fill="white" />
  <circle cx="1075" cy="1786" r="1" fill="white" />
  <circle cx="1050" cy="322" r="1" fill="white" />
  <circle cx="272" cy="152" r="1" fill="white" />
  <circle cx="923" cy="1852" r="1" fill="white" />
  <circle cx="1864" cy="1493" r="1" fill="white" />
  <circle cx="724" cy="399" r="1" fill="white" />
  <circle cx="795" cy="1654" r="1" fill="white" />
  <circle cx="888" cy="1606" r="1" fill="white" />
  <circle cx="1668" cy="1081" r="1" fill="white" />
  <circle cx="180" cy="1733" r="1" fill="white" />
  <circle cx="1599" cy="1651" r="1" fill="white" />
  <circle cx="264" cy="1052" r="1" fill="white" />
  <circle cx="534" cy="1752" r="1" fill="white" />
  <circle cx="400" cy="1173" r="1" fill="white" />
  <circle cx="1360" cy="1820" r="1" fill="white" />
  <circle cx="1208" cy="541" r="1" fill="white" />
  <circle cx="1614" cy="128" r="1" fill="white" />
  <circle cx="807" cy="662" r="1" fill="white" />
  <circle cx="1101" cy="1623" r="1" fill="white" />
  <circle cx="1806" cy="605" r="1" fill="white" />
  <circle cx="1145" cy="987" r="1" fill="white" />
  <circle cx="1308" cy="624" r="1" fill="white" />
  <circle cx="1028" cy="402" r="1" fill="white" />
  <circle cx="1586" cy="898" r="1" fill="white" />
  <circle cx="1832" cy="1416" r="1" fill="white" />
  <circle cx="1133" cy="1521" r="1" fill="white" />
  <circle cx="329" cy="1791" r="1" fill="white" />
  <circle cx="1770" cy="244" r="1" fill="white" />
  <circle cx="410" cy="1418" r="1" fill="white" />
  <circle cx="1141" cy="232" r="1" fill="white" />
  <circle cx="1673" cy="778" r="1" fill="white" />
  <circle cx="147" cy="1766" r="1" fill="white" />
  <circle cx="789" cy="1835" r="1" fill="white" />
  <circle cx="1763" cy="1072" r="1" fill="white" />
  <circle cx="1089" cy="1999" r="1" fill="white" />
  <circle cx="390" cy="1419" r="1" fill="white" />
  <circle cx="589" cy="1697" r="1" fill="white" />
  <circle cx="819" cy="1392" r="1" fill="white" />
  <circle cx="1908" cy="144" r="1" fill="white" />
  <circle cx="1441" cy="323" r="1" fill="white" />
  <circle cx="269" cy="1052" r="1" fill="white" />
  <circle cx="1815" cy="1950" r="1" fill="white" />
  <circle cx="1145" cy="460" r="1" fill="white" />
  <circle cx="1178" cy="1228" r="1" fill="white" />
  <circle cx="758" cy="1830" r="1" fill="white" />
  <circle cx="1159" cy="1125" r="1" fill="white" />
  <circle cx="1471" cy="270" r="1" fill="white" />
  <circle cx="698" cy="1697" r="1" fill="white" />
  <circle cx="522" cy="776" r="1" fill="white" />
  <circle cx="419" cy="362" r="1" fill="white" />
  <circle cx="1420" cy="983" r="1" fill="white" />
  <circle cx="947" cy="251" r="1" fill="white" />
  <circle cx="218" cy="1464" r="1" fill="white" />
  <circle cx="1233" cy="574" r="1" fill="white" />
  <circle cx="1712" cy="1804" r="1" fill="white" />
  <circle cx="962" cy="1214" r="1" fill="white" />
  <circle cx="1458" cy="541" r="1" fill="white" />
  <circle cx="124" cy="142" r="1" fill="white" />
  <circle cx="1639" cy="727" r="1" fill="white" />
  <circle cx="312" cy="1625" r="1" fill="white" />
  <circle cx="431" cy="1911" r="1" fill="white" />
  <circle cx="152" cy="1661" r="1" fill="white" />
  <circle cx="351" cy="1459" r="1" fill="white" />
  <circle cx="1040" cy="484" r="1" fill="white" />
  <circle cx="1138" cy="225" r="1" fill="white" />
  <circle cx="2" cy="100" r="1" fill="white" />
  <circle cx="1202" cy="746" r="1" fill="white" />
  <circle cx="708" cy="1601" r="1" fill="white" />
  <circle cx="1319" cy="1622" r="1" fill="white" />
  <circle cx="1060" cy="1671" r="1" fill="white" />
  <circle cx="1119" cy="1756" r="1" fill="white" />
  <circle cx="448" cy="782" r="1" fill="white" />
  <circle cx="227" cy="161" r="1" fill="white" />
  <circle cx="493" cy="1002" r="1" fill="white" />
  <circle cx="1477" cy="1366" r="1" fill="white" />
  <circle cx="555" cy="331" r="1" fill="white" />
  <circle cx="130" cy="836" r="1" fill="white" />
  <circle cx="679" cy="1218" r="1" fill="white" />
  <circle cx="656" cy="1784" r="1" fill="white" />
  <circle cx="729" cy="819" r="1" fill="white" />
  <circle cx="1904" cy="1013" r="1" fill="white" />
  <circle cx="1619" cy="1232" r="1" fill="white" />
  <circle cx="1469" cy="1298" r="1" fill="white" />
  <circle cx="711" cy="865" r="1" fill="white" />
  <circle cx="362" cy="1675" r="1" fill="white" />
  <circle cx="1692" cy="703" r="1" fill="white" />
  <circle cx="340" cy="1695" r="1" fill="white" />
  <circle cx="1524" cy="138" r="1" fill="white" />
  <circle cx="652" cy="1110" r="1" fill="white" />
  <circle cx="653" cy="553" r="1" fill="white" />
  <circle cx="392" cy="1501" r="1" fill="white" />
  <circle cx="57" cy="1167" r="1" fill="white" />
  <circle cx="1488" cy="1291" r="1" fill="white" />
  <circle cx="280" cy="325" r="1" fill="white" />
  <circle cx="736" cy="858" r="1" fill="white" />
  <circle cx="1745" cy="1088" r="1" fill="white" />
  <circle cx="803" cy="911" r="1" fill="white" />
  <circle cx="473" cy="1867" r="1" fill="white" />
  <circle cx="318" cy="1395" r="1" fill="white" />
  <circle cx="461" cy="1858" r="1" fill="white" />
  <circle cx="1549" cy="1455" r="1" fill="white" />
  <circle cx="1363" cy="1191" r="1" fill="white" />
  <circle cx="197" cy="1986" r="1" fill="white" />
  <circle cx="1718" cy="500" r="1" fill="white" />
  <circle cx="1328" cy="454" r="1" fill="white" />
  <circle cx="591" cy="1793" r="1" fill="white" />
  <circle cx="303" cy="1506" r="1" fill="white" />
  <circle cx="893" cy="1530" r="1" fill="white" />
  <circle cx="1151" cy="454" r="1" fill="white" />
  <circle cx="903" cy="1593" r="1" fill="white" />
  <circle cx="790" cy="1305" r="1" fill="white" />
  <circle cx="743" cy="1753" r="1" fill="white" />
  <circle cx="621" cy="1697" r="1" fill="white" />
  <circle cx="195" cy="799" r="1" fill="white" />
  <circle cx="1651" cy="1989" r="1" fill="white" />
  <circle cx="1104" cy="927" r="1" fill="white" />
  <circle cx="335" cy="1816" r="1" fill="white" />
  <circle cx="1223" cy="1015" r="1" fill="white" />
  <circle cx="1229" cy="1299" r="1" fill="white" />
  <circle cx="1734" cy="279" r="1" fill="white" />
  <circle cx="1049" cy="1143" r="1" fill="white" />
  <circle cx="1911" cy="694" r="1" fill="white" />
  <circle cx="248" cy="1130" r="1" fill="white" />
  <circle cx="1827" cy="1091" r="1" fill="white" />
  <circle cx="1579" cy="877" r="1" fill="white" />
  <circle cx="890" cy="1314" r="1" fill="white" />
  <circle cx="627" cy="1472" r="1" fill="white" />
  <circle cx="339" cy="964" r="1" fill="white" />
  <circle cx="1711" cy="1273" r="1" fill="white" />
  <circle cx="1131" cy="1937" r="1" fill="white" />
  <circle cx="986" cy="877" r="1" fill="white" />
  <circle cx="328" cy="950" r="1" fill="white" />
  <circle cx="1200" cy="309" r="1" fill="white" />
  <circle cx="367" cy="921" r="1" fill="white" />
  <circle cx="493" cy="836" r="1" fill="white" />
  <circle cx="443" cy="1268" r="1" fill="white" />
  <circle cx="1183" cy="72" r="1" fill="white" />
  <circle cx="328" cy="1806" r="1" fill="white" />
  <circle cx="1758" cy="971" r="1" fill="white" />
  <circle cx="1726" cy="1098" r="1" fill="white" />
  <circle cx="1130" cy="832" r="1" fill="white" />
  <circle cx="219" cy="1907" r="1" fill="white" />
  <circle cx="1631" cy="1704" r="1" fill="white" />
  <circle cx="1105" cy="339" r="1" fill="white" />
  <circle cx="987" cy="1369" r="1" fill="white" />
  <circle cx="1560" cy="243" r="1" fill="white" />
  <circle cx="1119" cy="1728" r="1" fill="white" />
  <circle cx="761" cy="279" r="1" fill="white" />
  <circle cx="999" cy="1658" r="1" fill="white" />
  <circle cx="336" cy="1436" r="1" fill="white" />
  <circle cx="1733" cy="1827" r="1" fill="white" />
  <circle cx="172" cy="1615" r="1" fill="white" />
  <circle cx="1115" cy="145" r="1" fill="white" />
  <circle cx="1084" cy="1465" r="1" fill="white" />
  <circle cx="1790" cy="755" r="1" fill="white" />
  <circle cx="1690" cy="172" r="1" fill="white" />
  <circle cx="213" cy="1579" r="1" fill="white" />
  <circle cx="1305" cy="1083" r="1" fill="white" />
  <circle cx="133" cy="10" r="1" fill="white" />
  <circle cx="793" cy="1622" r="1" fill="white" />
  <circle cx="1817" cy="1357" r="1" fill="white" />
  <circle cx="1282" cy="11" r="1" fill="white" />
  <circle cx="1265" cy="748" r="1" fill="white" />
  <circle cx="1741" cy="1212" r="1" fill="white" />
  <circle cx="1844" cy="1410" r="1" fill="white" />
  <circle cx="1051" cy="1048" r="1" fill="white" />
  <circle cx="1404" cy="1779" r="1" fill="white" />
  <circle cx="1379" cy="1256" r="1" fill="white" />
  <circle cx="1113" cy="329" r="1" fill="white" />
  <circle cx="1654" cy="84" r="1" fill="white" />
  <circle cx="449" cy="1686" r="1" fill="white" />
  <circle cx="1733" cy="1140" r="1" fill="white" />
  <circle cx="1783" cy="1643" r="1" fill="white" />
  <circle cx="1736" cy="1744" r="1" fill="white" />
  <circle cx="1028" cy="1697" r="1" fill="white" />
  <circle cx="1131" cy="596" r="1" fill="white" />
  <circle cx="1083" cy="97" r="1" fill="white" />
  <circle cx="729" cy="334" r="1" fill="white" />
  <circle cx="959" cy="460" r="1" fill="white" />
  <circle cx="191" cy="1492" r="1" fill="white" />
  <circle cx="31" cy="1866" r="1" fill="white" />
  <circle cx="1287" cy="685" r="1" fill="white" />
  <circle cx="1326" cy="185" r="1" fill="white" />
  <circle cx="218" cy="1627" r="1" fill="white" />
  <circle cx="179" cy="1872" r="1" fill="white" />
  <circle cx="1444" cy="1055" r="1" fill="white" />
  <circle cx="137" cy="1760" r="1" fill="white" />
  <circle cx="1342" cy="75" r="1" fill="white" />
  <circle cx="1106" cy="208" r="1" fill="white" />
  <circle cx="609" cy="1484" r="1" fill="white" />
  <circle cx="438" cy="1518" r="1" fill="white" />
  <circle cx="360" cy="505" r="1" fill="white" />
  <circle cx="1617" cy="663" r="1" fill="white" />
  <circle cx="644" cy="757" r="1" fill="white" />
  <circle cx="1005" cy="1415" r="1" fill="white" />
  <circle cx="1554" cy="1375" r="1" fill="white" />
  <circle cx="1456" cy="211" r="1" fill="white" />
  <circle cx="1617" cy="1207" r="1" fill="white" />
  <circle cx="1685" cy="1731" r="1" fill="white" />
  <circle cx="479" cy="598" r="1" fill="white" />
  <circle cx="1083" cy="1259" r="1" fill="white" />
  <circle cx="885" cy="183" r="1" fill="white" />
  <circle cx="950" cy="677" r="1" fill="white" />
  <circle cx="31" cy="1525" r="1" fill="white" />
  <circle cx="1317" cy="594" r="1" fill="white" />
  <circle cx="602" cy="1348" r="1" fill="white" />
  <circle cx="147" cy="1537" r="1" fill="white" />
  <circle cx="30" cy="1498" r="1" fill="white" />
  <circle cx="845" cy="1170" r="1" fill="white" />
  <circle cx="475" cy="1666" r="1" fill="white" />
  <circle cx="1555" cy="1103" r="1" fill="white" />
  <circle cx="1734" cy="1983" r="1" fill="white" />
  <circle cx="1089" cy="35" r="1" fill="white" />
</svg>
